<mxfile host="Electron" agent="Mozilla/5.0 (Windows NT 10.0; Win64; x64) AppleWebKit/537.36 (KHTML, like Gecko) draw.io/28.0.6 Chrome/138.0.7204.100 Electron/37.2.3 Safari/537.36" version="28.0.6">
  <diagram name="第 1 页" id="DVq6_ETX1RvyilZhN15-">
    <mxGraphModel dx="1213" dy="828" grid="1" gridSize="10" guides="1" tooltips="1" connect="1" arrows="1" fold="1" page="1" pageScale="1" pageWidth="827" pageHeight="1169" math="0" shadow="0">
      <root>
        <mxCell id="0" />
        <mxCell id="1" parent="0" />
        <mxCell id="-3VrJfeOIIsYagIxA5-3-3" style="edgeStyle=orthogonalEdgeStyle;rounded=0;orthogonalLoop=1;jettySize=auto;html=1;exitX=1;exitY=0.5;exitDx=0;exitDy=0;" edge="1" parent="1" source="-3VrJfeOIIsYagIxA5-3-2" target="-3VrJfeOIIsYagIxA5-3-4">
          <mxGeometry relative="1" as="geometry">
            <mxPoint x="240" y="410" as="targetPoint" />
          </mxGeometry>
        </mxCell>
        <mxCell id="-3VrJfeOIIsYagIxA5-3-2" value="" style="rounded=0;whiteSpace=wrap;html=1;" vertex="1" parent="1">
          <mxGeometry x="90" y="320" width="100" height="180" as="geometry" />
        </mxCell>
        <mxCell id="-3VrJfeOIIsYagIxA5-3-1" value="Actor" style="shape=umlActor;verticalLabelPosition=bottom;verticalAlign=top;html=1;outlineConnect=0;" vertex="1" parent="1">
          <mxGeometry x="110" y="350" width="60" height="120" as="geometry" />
        </mxCell>
        <mxCell id="-3VrJfeOIIsYagIxA5-3-6" value="" style="edgeStyle=orthogonalEdgeStyle;rounded=0;orthogonalLoop=1;jettySize=auto;html=1;" edge="1" parent="1" source="-3VrJfeOIIsYagIxA5-3-4" target="-3VrJfeOIIsYagIxA5-3-5">
          <mxGeometry relative="1" as="geometry" />
        </mxCell>
        <mxCell id="-3VrJfeOIIsYagIxA5-3-4" value="&lt;font style=&quot;font-size: 20px;&quot;&gt;用学号查找到学生&lt;/font&gt;" style="rounded=0;whiteSpace=wrap;html=1;" vertex="1" parent="1">
          <mxGeometry x="250" y="380" width="110" height="60" as="geometry" />
        </mxCell>
        <mxCell id="-3VrJfeOIIsYagIxA5-3-11" value="" style="edgeStyle=orthogonalEdgeStyle;rounded=0;orthogonalLoop=1;jettySize=auto;html=1;" edge="1" parent="1" source="-3VrJfeOIIsYagIxA5-3-5" target="-3VrJfeOIIsYagIxA5-3-10">
          <mxGeometry relative="1" as="geometry" />
        </mxCell>
        <mxCell id="-3VrJfeOIIsYagIxA5-3-5" value="&lt;span style=&quot;font-size: 20px;&quot;&gt;老师提供新的学号&lt;/span&gt;" style="rounded=0;whiteSpace=wrap;html=1;" vertex="1" parent="1">
          <mxGeometry x="400" y="380" width="110" height="60" as="geometry" />
        </mxCell>
        <mxCell id="-3VrJfeOIIsYagIxA5-3-13" value="" style="edgeStyle=orthogonalEdgeStyle;rounded=0;orthogonalLoop=1;jettySize=auto;html=1;" edge="1" parent="1" source="-3VrJfeOIIsYagIxA5-3-10" target="-3VrJfeOIIsYagIxA5-3-12">
          <mxGeometry relative="1" as="geometry" />
        </mxCell>
        <mxCell id="-3VrJfeOIIsYagIxA5-3-16" value="" style="edgeStyle=orthogonalEdgeStyle;rounded=0;orthogonalLoop=1;jettySize=auto;html=1;" edge="1" parent="1" source="-3VrJfeOIIsYagIxA5-3-10" target="-3VrJfeOIIsYagIxA5-3-15">
          <mxGeometry relative="1" as="geometry" />
        </mxCell>
        <mxCell id="-3VrJfeOIIsYagIxA5-3-10" value="&lt;font style=&quot;font-size: 20px;&quot;&gt;系统判定学号&lt;/font&gt;&lt;div&gt;&lt;font style=&quot;font-size: 20px;&quot;&gt;是否重复&lt;/font&gt;&lt;/div&gt;" style="rhombus;whiteSpace=wrap;html=1;rounded=0;" vertex="1" parent="1">
          <mxGeometry x="550" y="325" width="170" height="170" as="geometry" />
        </mxCell>
        <mxCell id="-3VrJfeOIIsYagIxA5-3-12" value="&lt;font style=&quot;font-size: 20px;&quot;&gt;提示学号重复&lt;/font&gt;" style="whiteSpace=wrap;html=1;rounded=0;" vertex="1" parent="1">
          <mxGeometry x="572.5" y="190" width="125" height="60" as="geometry" />
        </mxCell>
        <mxCell id="-3VrJfeOIIsYagIxA5-3-14" value="yes" style="text;html=1;align=center;verticalAlign=middle;resizable=0;points=[];autosize=1;strokeColor=none;fillColor=none;" vertex="1" parent="1">
          <mxGeometry x="600" y="278" width="40" height="30" as="geometry" />
        </mxCell>
        <mxCell id="-3VrJfeOIIsYagIxA5-3-15" value="&lt;font style=&quot;font-size: 20px;&quot;&gt;系统修改学生学号&lt;/font&gt;" style="whiteSpace=wrap;html=1;rounded=0;" vertex="1" parent="1">
          <mxGeometry x="575" y="590" width="120" height="60" as="geometry" />
        </mxCell>
        <mxCell id="-3VrJfeOIIsYagIxA5-3-17" value="no" style="text;html=1;align=center;verticalAlign=middle;resizable=0;points=[];autosize=1;strokeColor=none;fillColor=none;" vertex="1" parent="1">
          <mxGeometry x="600" y="518" width="40" height="30" as="geometry" />
        </mxCell>
      </root>
    </mxGraphModel>
  </diagram>
</mxfile>
